<svg viewBox="0 0 2009 400" xmlns="http://www.w3.org/2000/svg"><g><g><g><g><g><line x1="51.53200149536133" y1="254.4812515940065" x2="46.53200149536133" y2="254.4812515940065" style="visibility: inherit;" fill="rgb(0, 0, 0)" stroke="rgb(204, 204, 204)" stroke-width="1px"></line><line x1="51.53200149536133" y1="34.403937154561" x2="46.53200149536133" y2="34.403937154561" style="visibility: inherit;" fill="rgb(0, 0, 0)" stroke="rgb(204, 204, 204)" stroke-width="1px"></line></g><g transform="translate(41.53200149536133, 0)"><text style="text-anchor: end; visibility: inherit; font-family: Roboto, sans-serif; font-size: 12px; font-weight: 200;" x="0" y="254.4812515940065" dx="0em" dy="0.3em" fill="rgb(50, 49, 63)" stroke="none" stroke-width="1px">0.03</text><text style="text-anchor: end; visibility: inherit; font-family: Roboto, sans-serif; font-size: 12px; font-weight: 200;" x="0" y="34.403937154561" dx="0em" dy="0.3em" fill="rgb(50, 49, 63)" stroke="none" stroke-width="1px">0.04</text></g><line x1="51.53200149536133" y1="0" x2="51.53200149536133" y2="377.5999994277954" fill="rgb(0, 0, 0)" stroke="rgb(204, 204, 204)" stroke-width="1px"></line></g></g><g transform="translate(51, 0)" clip-path="url(#clip_0)"><clipPath id="clip_0"><rect width="1957" height="377"></rect></clipPath><g><g><g><line x1="57.227783619450285" y1="0" x2="57.227783619450285" y2="377.5999994277954" fill="rgb(0, 0, 0)" stroke="rgb(60, 60, 60)" stroke-width="1px" opacity="0.25"></line><line x1="275.3167551756533" y1="0" x2="275.3167551756533" y2="377.5999994277954" fill="rgb(0, 0, 0)" stroke="rgb(60, 60, 60)" stroke-width="1px" opacity="0.25"></line><line x1="493.40572673185625" y1="0" x2="493.40572673185625" y2="377.5999994277954" fill="rgb(0, 0, 0)" stroke="rgb(60, 60, 60)" stroke-width="1px" opacity="0.25"></line><line x1="711.4946982880592" y1="0" x2="711.4946982880592" y2="377.5999994277954" fill="rgb(0, 0, 0)" stroke="rgb(60, 60, 60)" stroke-width="1px" opacity="0.25"></line><line x1="929.5836698442622" y1="0" x2="929.5836698442622" y2="377.5999994277954" fill="rgb(0, 0, 0)" stroke="rgb(60, 60, 60)" stroke-width="1px" opacity="0.25"></line><line x1="1147.6726414004652" y1="0" x2="1147.6726414004652" y2="377.5999994277954" fill="rgb(0, 0, 0)" stroke="rgb(60, 60, 60)" stroke-width="1px" opacity="0.25"></line><line x1="1365.7616129566682" y1="0" x2="1365.7616129566682" y2="377.5999994277954" fill="rgb(0, 0, 0)" stroke="rgb(60, 60, 60)" stroke-width="1px" opacity="0.25"></line><line x1="1583.8505845128711" y1="0" x2="1583.8505845128711" y2="377.5999994277954" fill="rgb(0, 0, 0)" stroke="rgb(60, 60, 60)" stroke-width="1px" opacity="0.25"></line><line x1="1801.9395560690743" y1="0" x2="1801.9395560690743" y2="377.5999994277954" fill="rgb(0, 0, 0)" stroke="rgb(60, 60, 60)" stroke-width="1px" opacity="0.25"></line></g><g><line x1="0" y1="254.4812515940065" x2="1957.4679985046387" y2="254.4812515940065" fill="rgb(0, 0, 0)" stroke="rgb(60, 60, 60)" stroke-width="1px" opacity="0.25"></line><line x1="0" y1="34.403937154561" x2="1957.4679985046387" y2="34.403937154561" fill="rgb(0, 0, 0)" stroke="rgb(60, 60, 60)" stroke-width="1px" opacity="0.25"></line></g></g></g><g><g><line x1="57.227783619450285" y1="0" x2="57.227783619450285" y2="377.5999994277954" fill="rgb(0, 0, 0)" stroke="rgb(153, 153, 153)" stroke-width="1.5px"></line></g></g><g><g><g><g><g><path style="fill: none;" stroke="rgb(255, 112, 67)" stroke-width="2px" d="M79.0366807750706,297.853497685607L100.84557793069088,297.1368571208963L122.65447508631117,295.8195347666762L144.46337224193147,293.6516223847989L166.27226939755178,291.23179672319856L188.08116655317207,288.51359540033496L209.89006370879238,285.41217642640663L231.6989608644127,282.02163407461654L253.507858020033,277.92405624284004L275.3167551756533,273.4922828019593L297.1256523312736,268.19420600563467L318.9345494868939,264.8544525764069L340.7434466425142,259.675479969131L362.55234379813453,255.17024607131714L384.3612409537548,250.16647900102893L406.1701381093751,243.78101186082318L427.9790352649954,237.18204908082132L449.7879324206157,231.3676713762951L471.596829576236,221.45918277712343L493.40572673185625,214.35664358414496L515.2146238874766,208.34305694855564L537.0235210430969,188.33385854604614L558.8324181987172,178.73214970118556L580.6413153543375,171.5480418690727L602.4502125099579,161.75724325206727L624.2591096655781,154.35227491831813L646.0680068211984,149.94890911403374L667.8769039768188,145.32081494595084L689.685801132439,141.73435055875916L711.4946982880592,138.042319356645L733.3035954436796,134.26004340712814L755.1124925992999,132.31985832442507L776.9213897549201,129.00135065560852L798.7302869105405,125.8227394564257L820.5391840661608,124.23104159507972L842.3480812217812,121.71459209211721L864.1569783774014,118.52708230897018L885.9658755330217,116.48824031240042L907.774772688642,115.01548701008464L929.5836698442622,112.65917051481831L951.3925669998824,111.62065400456193L973.2014641555028,111.14051720763607L995.0103613111231,110.44519206039283L1016.8192584667435,110.27791079776955L1038.6281556223637,109.26870492914954L1060.4370527779838,107.94961024130943L1082.2459499336044,107.03206874129842L1104.0548470892245,106.27112112875342L1125.8637442448448,105.77626159573468L1147.6726414004652,105.3208043738964L1169.4815385560855,105.12424010286776L1191.2904357117059,104.48987362006497L1213.0993328673262,103.46417428102698L1234.9082300229463,103.17937610719532L1256.7171271785667,101.99983675803581L1278.526024334187,88.32081117725714L1300.3349214898071,70.2432433971317L1322.1438186454277,68.0445774582342L1343.9527158010478,67.48975928006932L1365.7616129566682,66.6119520668494L1387.5705101122885,66.2833495507343L1409.3794072679088,65.32301704027097L1431.1883044235292,64.4330194632252L1452.9972015791493,64.37818843498013L1474.8060987347696,64.3532193906682L1496.61499589039,64.41768119860082L1518.4238930460103,64.7305833655325L1540.2327902016305,64.84697234278647L1562.041687357251,65.1367614432742L1583.8505845128711,63.2684828774521L1605.6594816684915,63.75613154607381L1627.4683788241118,63.60622919670736L1649.2772759797322,63.605414992548L1671.0861731353525,64.20468153663948L1692.8950702909726,64.27305722564802L1714.703967446593,59.74879515802033L1736.5128646022133,59.235063752732856L1758.3217617578337,58.92234098928972L1780.1306589134538,59.455297281009685L1801.9395560690743,59.71793797712701" fill="none"></path></g></g></g></g></g><g><g opacity="0.995462"><span fill="rgb(0, 0, 0)" stroke="none" stroke-width="1px">Alt + Scroll to Zoom</span></g></g></g><g transform="translate(51, 377)" clip-path="url(#clip_1)"><clipPath id="clip_1"><rect width="1957" height="22"></rect></clipPath><g><g><line x1="57.227783619450285" y1="0" x2="57.227783619450285" y2="5" style="visibility: inherit;" fill="rgb(0, 0, 0)" stroke="rgb(204, 204, 204)" stroke-width="1px"></line><line x1="275.3167551756533" y1="0" x2="275.3167551756533" y2="5" style="visibility: inherit;" fill="rgb(0, 0, 0)" stroke="rgb(204, 204, 204)" stroke-width="1px"></line><line x1="493.40572673185625" y1="0" x2="493.40572673185625" y2="5" style="visibility: inherit;" fill="rgb(0, 0, 0)" stroke="rgb(204, 204, 204)" stroke-width="1px"></line><line x1="711.4946982880592" y1="0" x2="711.4946982880592" y2="5" style="visibility: inherit;" fill="rgb(0, 0, 0)" stroke="rgb(204, 204, 204)" stroke-width="1px"></line><line x1="929.5836698442622" y1="0" x2="929.5836698442622" y2="5" style="visibility: inherit;" fill="rgb(0, 0, 0)" stroke="rgb(204, 204, 204)" stroke-width="1px"></line><line x1="1147.6726414004652" y1="0" x2="1147.6726414004652" y2="5" style="visibility: inherit;" fill="rgb(0, 0, 0)" stroke="rgb(204, 204, 204)" stroke-width="1px"></line><line x1="1365.7616129566682" y1="0" x2="1365.7616129566682" y2="5" style="visibility: inherit;" fill="rgb(0, 0, 0)" stroke="rgb(204, 204, 204)" stroke-width="1px"></line><line x1="1583.8505845128711" y1="0" x2="1583.8505845128711" y2="5" style="visibility: inherit;" fill="rgb(0, 0, 0)" stroke="rgb(204, 204, 204)" stroke-width="1px"></line><line x1="1801.9395560690743" y1="0" x2="1801.9395560690743" y2="5" style="visibility: inherit;" fill="rgb(0, 0, 0)" stroke="rgb(204, 204, 204)" stroke-width="1px"></line></g><g transform="translate(0, 8)"><text style="text-anchor: middle; visibility: inherit; font-family: Roboto, sans-serif; font-size: 12px; font-weight: 200;" x="57.227783619450285" y="0" dx="0em" dy="0.95em" fill="rgb(50, 49, 63)" stroke="none" stroke-width="1px">0</text><text style="text-anchor: middle; visibility: inherit; font-family: Roboto, sans-serif; font-size: 12px; font-weight: 200;" x="275.3167551756533" y="0" dx="0em" dy="0.95em" fill="rgb(50, 49, 63)" stroke="none" stroke-width="1px">1k</text><text style="text-anchor: middle; visibility: inherit; font-family: Roboto, sans-serif; font-size: 12px; font-weight: 200;" x="493.40572673185625" y="0" dx="0em" dy="0.95em" fill="rgb(50, 49, 63)" stroke="none" stroke-width="1px">2k</text><text style="text-anchor: middle; visibility: inherit; font-family: Roboto, sans-serif; font-size: 12px; font-weight: 200;" x="711.4946982880592" y="0" dx="0em" dy="0.95em" fill="rgb(50, 49, 63)" stroke="none" stroke-width="1px">3k</text><text style="text-anchor: middle; visibility: inherit; font-family: Roboto, sans-serif; font-size: 12px; font-weight: 200;" x="929.5836698442622" y="0" dx="0em" dy="0.95em" fill="rgb(50, 49, 63)" stroke="none" stroke-width="1px">4k</text><text style="text-anchor: middle; visibility: inherit; font-family: Roboto, sans-serif; font-size: 12px; font-weight: 200;" x="1147.6726414004652" y="0" dx="0em" dy="0.95em" fill="rgb(50, 49, 63)" stroke="none" stroke-width="1px">5k</text><text style="text-anchor: middle; visibility: inherit; font-family: Roboto, sans-serif; font-size: 12px; font-weight: 200;" x="1365.7616129566682" y="0" dx="0em" dy="0.95em" fill="rgb(50, 49, 63)" stroke="none" stroke-width="1px">6k</text><text style="text-anchor: middle; visibility: inherit; font-family: Roboto, sans-serif; font-size: 12px; font-weight: 200;" x="1583.8505845128711" y="0" dx="0em" dy="0.95em" fill="rgb(50, 49, 63)" stroke="none" stroke-width="1px">7k</text><text style="text-anchor: middle; visibility: inherit; font-family: Roboto, sans-serif; font-size: 12px; font-weight: 200;" x="1801.9395560690743" y="0" dx="0em" dy="0.95em" fill="rgb(50, 49, 63)" stroke="none" stroke-width="1px">8k</text></g><line x1="0" y1="0" x2="1957.4679985046387" y2="0" fill="rgb(0, 0, 0)" stroke="rgb(204, 204, 204)" stroke-width="1px"></line></g></g></g></g></svg>